Coordinates
version=1
nRows=29
nColumns=24
inDegrees=yes

Units are S.I. units (second, meters, Newtons, ...)
Angles are in degrees.

endheader
time	pelvis_tilt	pelvis_list	pelvis_rotation	pelvis_tx	pelvis_ty	pelvis_tz	hip_flexion_r	hip_adduction_r	hip_rotation_r	knee_angle_r	ankle_angle_r	subtalar_angle_r	mtp_angle_r	hip_flexion_l	hip_adduction_l	hip_rotation_l	knee_angle_l	ankle_angle_l	subtalar_angle_l	mtp_angle_l	lumbar_extension	lumbar_bending	lumbar_rotation
      0.46200000	     -5.16893316	      4.01845834	      1.38870528	     -0.79175578	      0.98232824	      0.29083561	     30.52691265	     -2.26601763	     -5.22635612	    -10.72552356	      2.61189073	     -6.55016890	      0.34542155	    -10.70821138	      7.59810324	      1.37229335	     -4.91801216	      7.21844397	     -4.04219556	      0.29832616	     -0.12639176	     -1.96701175	      1.28666638
      0.46616667	     -5.17414077	      4.05934676	      1.39402043	     -0.78565013	      0.98166169	      0.29114414	     30.44740118	     -2.24863629	     -5.32918680	    -10.68982449	      2.43864296	     -6.32679774	      4.04839598	    -10.76507206	      7.60877987	      1.31363160	     -5.51004801	      7.20675778	     -3.91853474	      1.73117266	     -0.07027298	     -2.01558202	      1.21260449
      0.47033333	     -5.23379315	      4.06235798	      1.45400542	     -0.77953811	      0.98099146	      0.29138465	     30.41339336	     -2.21414174	     -5.43179592	    -10.73619313	      2.31633969	     -6.39134821	      4.06581947	    -10.72083337	      7.57702628	      1.37398549	     -6.19212252	      7.24933889	     -3.92819501	      1.74710172	      0.06811120	     -2.00783881	      1.15445340
      0.47450000	     -5.30584768	      4.06839872	      1.49674655	     -0.77341570	      0.98033332	      0.29168251	     30.38115639	     -2.16667555	     -5.42979921	    -10.81555815	      2.10746727	     -6.45481851	      4.12700320	    -10.60511227	      7.54438823	      1.32179584	     -6.97998853	      7.26374058	     -3.74394647	      1.81919193	      0.21840013	     -2.01500161	      1.03124275
      0.47866667	     -5.31062628	      4.07567729	      1.52601083	     -0.76725501	      0.97979061	      0.29193649	     30.30056619	     -2.13200163	     -5.48376052	    -11.00907765	      1.84525257	     -6.50968584	      4.15638602	    -10.55762788	      7.52391761	      1.33775278	     -7.77130493	      7.24100248	     -3.76016314	      1.86535276	      0.29342739	     -2.00064625	      1.01840365
      0.48283333	     -5.41292786	      4.06583163	      1.55610288	     -0.76111633	      0.97913191	      0.29225195	     30.31917016	     -2.06542282	     -5.41457247	    -11.24812315	      1.57696414	     -6.69747734	      4.28980601	    -10.31618335	      7.47587575	      1.23020455	     -8.73215909	      7.24468663	     -3.53087526	      2.07733329	      0.47244960	     -1.97778399	      0.92276318
      0.48700000	     -5.43283719	      4.05842235	      1.59226636	     -0.75492368	      0.97864731	      0.29248536	     30.25171653	     -2.02480464	     -5.42872634	    -11.54275291	      1.18774127	     -6.78424303	      4.33673896	    -10.17273318	      7.44223656	      1.26354794	     -9.66760649	      7.15608056	     -3.57171145	      2.17121366	      0.56590836	     -1.94318650	      0.93158989
      0.49116667	     -5.49233615	      4.03073441	      1.60981206	     -0.74874747	      0.97813209	      0.29283187	     30.21938356	     -1.93514297	     -5.28737974	    -11.87096540	      0.89312768	     -7.11733012	      4.53338121	     -9.89787625	      7.37140689	      1.11765296	    -10.76340027	      7.08029050	     -3.35309073	      2.56338488	      0.70512756	     -1.90127356	      0.86244551
      0.49533333	     -5.52099148	      4.01991470	      1.63962454	     -0.74255572	      0.97769189	      0.29306501	     30.17967581	     -1.89547818	     -5.26703700	    -12.28108783	      0.43792443	     -7.21754174	      4.59393396	     -9.66045132	      7.33710554	      1.15002910	    -11.84642986	      6.89598097	     -3.42043642	      2.71126554	      0.79703791	     -1.86240459	      0.89501897
      0.49950000	     -5.58625159	      3.98664307	      1.64456276	     -0.73639141	      0.97721410	      0.29343617	     30.16929208	     -1.79551141	     -5.06099411	    -12.71083330	      0.16546846	     -7.67277353	      4.84445015	     -9.27732944	      7.25741294	      0.96190106	    -13.12598274	      6.75970405	     -3.19916804	      3.34008359	      0.95011487	     -1.81158874	      0.86421413
      0.50366667	     -5.61413913	      3.93912117	      1.66822879	     -0.73017782	      0.97685223	      0.29371019	     30.11556053	     -1.71361960	     -4.97787723	    -13.15252341	     -0.32607356	     -7.94410538	      6.70720669	     -8.93501696	      7.17308654	      0.90820979	    -14.37654727	      6.37193006	     -3.30903840	      8.55643414	      1.05643922	     -1.73303735	      0.93430294
      0.50783333	     -5.64245332	      3.89848286	      1.67823463	     -0.72401740	      0.97649315	      0.29402828	     30.09547898	     -1.63274009	     -4.86330147	    -13.68793370	     -0.66673035	     -8.16282930	      6.72434312	     -8.51844944	      7.08811034	      0.77875016	    -15.76885375	      6.10516802	     -3.19821157	      8.63635414	      1.15452041	     -1.66515362	      0.93804634
      0.51200000	     -5.69014486	      3.84400873	      1.69568543	     -0.71786698	      0.97613982	      0.29434466	     30.08892516	     -1.54131409	     -4.73407185	    -14.22270089	     -1.03422680	     -8.39362011	      6.73387003	     -8.03541000	      6.98801648	      0.67464074	    -17.23615285	      5.74446293	     -3.14977685	      8.74578810	      1.28272623	     -1.58340707	      0.99236302
      0.51616667	     -5.72599390	      3.76797740	      1.69726332	     -0.71174016	      0.97581583	      0.29470608	     30.08362838	     -1.41923841	     -4.58083162	    -14.80187289	     -1.32693484	     -8.69119030	      6.74124143	     -7.49914578	      6.85347186	      0.49331729	    -18.80524322	      5.34334757	     -3.04003005	      8.91626366	      1.39295761	     -1.47533403	      1.05161599
      0.52033333	     -5.73951989	      3.65608062	      1.68369482	     -0.70564022	      0.97554486	      0.29515183	     30.04996575	     -1.23818154	     -4.35283859	    -15.38977711	     -1.53559790	     -9.29403218	      6.74887209	     -6.93278745	      6.66286402	      0.25003210	    -20.45654848	      4.90079389	     -2.83468799	      9.54695558	      1.46173002	     -1.32469721	      1.12389292
      0.52450000	     -5.74753068	      3.54318282	      1.67633583	     -0.69956870	      0.97528968	      0.29553517	     30.03004513	     -1.08082441	     -4.21695517	    -16.01613698	     -1.77360732	     -9.51566122	      6.65838785	     -6.32987268	      6.47812075	      0.05913662	    -22.16164862	      4.29531589	     -2.88072001	     13.83030800	      1.52953701	     -1.17531828	      1.21698312
      0.52866667	     -5.76904692	      3.41762598	      1.66718247	     -0.69352415	      0.97502914	      0.29593599	     30.03078314	     -0.91328507	     -4.09192801	    -16.66388878	     -1.89742734	     -9.64158119	      6.65149501	     -5.65570810	      6.26763539	     -0.16540302	    -23.95800060	      3.67493123	     -2.77534519	     13.88114297	      1.62070898	     -1.01078148	      1.30478076
      0.53283333	     -5.78108038	      3.26386817	      1.65460322	     -0.68752124	      0.97479353	      0.29638069	     30.02536502	     -0.70825113	     -3.94758457	    -17.32966563	     -1.95256749	     -9.90354150	      6.63273255	     -4.93797657	      6.01384029	     -0.40571036	    -25.82915200	      3.01776144	     -2.66296124	     13.98947569	      1.69191849	     -0.81893577	      1.41072033
      0.53700000	     -5.76970993	      3.08390261	      1.62185577	     -0.68157297	      0.97457201	      0.29686700	     30.00958633	     -0.46632626	     -3.79813651	    -18.02406966	     -1.98071605	    -10.26798317	      6.58779467	     -4.19925275	      5.71801308	     -0.68614817	    -27.76675739	      2.33157175	     -2.51592049	     14.20624769	      1.71910531	     -0.59001636	      1.53037016
      0.54116667	     -5.73775037	      2.87049154	      1.61578486	     -0.67564149	      0.97442718	      0.29735992	     29.93839803	     -0.19522126	     -3.66045458	    -18.66169717	     -1.94028160	    -10.67512719	      6.47816596	     -3.44167143	      5.37036721	     -0.93409071	    -29.74090793	      1.51079626	     -2.36780095	     14.66859272	      1.72873545	     -0.33849290	      1.67143601
      0.54533333	     -5.73172709	      2.65092682	      1.57148914	     -0.66976229	      0.97421365	      0.29785481	     29.92559538	      0.08491886	     -3.54474970	    -19.35558772	     -1.78020331	    -10.78508185	      6.41309562	     -2.61926690	      5.01873337	     -1.21071002	    -31.76343242	      0.67124947	     -2.34978711	     14.93398800	      1.76412010	     -0.06189185	      1.79210630
      0.54950000	     -5.68700685	      2.39382031	      1.54052207	     -0.66391467	      0.97407219	      0.29837446	     29.84940259	      0.40504085	     -3.44046943	    -20.01142728	     -1.58849604	    -11.04202820	      6.30634806	     -1.80602898	      4.60807467	     -1.47067261	    -33.81464812	     -0.22796126	     -2.27382093	     15.29478707	      1.74904973	      0.24839924	      1.94056593
      0.55366667	     -5.62541118	      2.11031026	      1.50523494	     -0.65809380	      0.97397880	      0.29889763	     29.73716342	      0.75246384	     -3.35475243	    -20.63190967	     -1.32467232	    -11.20664254	      6.21205347	     -0.98436301	      4.16103023	     -1.72511673	    -35.88084268	     -1.22592981	     -2.27734596	     15.57867391	      1.71594001	      0.58817882	      2.08210718
      0.55783333	     -5.55153945	      1.80151613	      1.47352867	     -0.65231656	      0.97391450	      0.29943362	     29.59828177	      1.12733228	     -3.28582285	    -21.22577874	     -1.03827161	    -11.43555614	      6.07412095	     -0.14989643	      3.67486984	     -1.96354242	    -37.96023930	     -2.24348881	     -2.24877365	     15.91917105	      1.66258158	      0.95806668	      2.24138913
      0.56200000	     -5.49898894	      1.50289715	      1.43995524	     -0.64659852	      0.97382703	      0.29994461	     29.47754348	      1.48616403	     -3.23853225	    -21.80594450	     -0.68768892	    -11.55444439	      5.95064430	      0.72650233	      3.20408928	     -2.16899253	    -40.03246704	     -3.30299931	     -2.32139335	     16.17080951	      1.63025683	      1.30922316	      2.39153452
      0.56616667	     -5.41557753	      1.16301262	      1.41990835	     -0.64090583	      0.97382879	      0.30048086	     29.28029028	      1.89141509	     -3.19938142	    -22.29926528	     -0.34490535	    -11.81099886	      5.70392758	      1.58846807	      2.67149643	     -2.35630448	    -42.09554260	     -4.43596486	     -2.33712528	     16.54957268	      1.55999376	      1.68368680	      2.57371594
      0.57033333	     -5.27474439	      0.82280107	      1.38398873	     -0.63521705	      0.97393558	      0.30095659	     29.01006650	      2.28490274	     -3.22135177	    -22.77130049	      0.05993565	    -11.72871888	      5.66400655	      2.37851600	      2.15277448	     -2.50975805	    -44.09942490	     -5.56126858	     -2.50227127	     16.59271685	      1.40696708	      2.10333699	      2.69005697
      0.57450000	     -5.25210608	      0.48279638	      1.33657736	     -0.62964154	      0.97384795	      0.30149937	     28.86825712	      2.69584464	     -3.19978356	    -23.23622700	      0.49163441	    -11.85977377	      5.54840302	      3.33534432	      1.61955100	     -2.68649836	    -46.13516679	     -6.57457199	     -2.63683414	     16.65994939	      1.40658472	      2.48549924	      2.86039063
      0.57866667	     -5.12748785	      0.13464685	      1.32144825	     -0.62405336	      0.97399915	      0.30196508	     28.55930354	      3.09442523	     -3.24350224	    -23.58903002	      0.90786069	    -11.85409137	      5.48837784	      4.16856436	      1.08654096	     -2.78203598	    -48.07929554	     -7.69936485	     -2.78261602	     16.65843344	      1.27046081	      2.89371466	      3.00364791
